<?xml version="1.0" encoding="utf-8"?>
<!-- Generator: Adobe Illustrator 24.0.0, SVG Export Plug-In . SVG Version: 6.00 Build 0)  -->
<svg version="1.1" id="Capa_1" xmlns="http://www.w3.org/2000/svg" xmlns:xlink="http://www.w3.org/1999/xlink" x="0px" y="0px"
	 viewBox="0 0 1920 1080" style="enable-background:new 0 0 1920 1080;" xml:space="preserve">
<style type="text/css">
	.st0{fill:#1E1E1E;}
	.st1{opacity:0.6;fill:#020230;}
	.st2{fill:#F2E4EC;}
	.st3{fill:#FFFFFF;}
	.st4{fill:none;stroke:#000000;stroke-miterlimit:10;}
	.st5{opacity:0.6;}
	.st6{fill:#020230;}
	.st7{fill:#45FF84;stroke:#000000;stroke-miterlimit:10;}
	.st8{fill:#00D6C4;}
	.st9{fill:#E8975B;stroke:url(#SVGID_1_);stroke-miterlimit:10;}
	.st10{fill:#F3D000;stroke:#000000;stroke-miterlimit:10;}
	.st11{fill:#E7007C;stroke:#000000;stroke-miterlimit:10;}
	.st12{fill:#E8975B;stroke:url(#SVGID_2_);stroke-miterlimit:10;}
	.st13{fill:#E8975B;stroke:url(#SVGID_3_);stroke-miterlimit:10;}
	.st14{fill:#E8975B;stroke:url(#SVGID_4_);stroke-miterlimit:10;}
	.st15{fill:#E8975B;stroke:url(#SVGID_5_);stroke-miterlimit:10;}
	.st16{fill:none;stroke:#59D793;stroke-width:3;stroke-miterlimit:10;}
</style>
<polyline class="st0" points="1428,882 492,882 492,198 1428,198 "/>
<path class="st1" d="M1231.3,516.5l-97.66,125.57l-7.15,9.18c-0.82,0.49-1.7,0.91-2.61,1.25h-11.16c-6.09-2.26-10.42-8.12-10.42-15
	c0-1.98,0.36-3.88,1.02-5.63l6.47-7.92l88.51-108.45l-86.5-102.86l-7.71-9.17c-0.51-1.56-0.79-3.23-0.79-4.97
	c0-6.88,4.33-12.74,10.42-15l5.41-0.87c0.95-0.15,1.93-0.09,2.81,0.3c0.01,0,0.01,0.01,0.02,0.01c0.27,0.12,0.87,0.34,1.59,0.59
	c3.21,1.13,6.03,3.14,8.12,5.82l2.46,3.14l96.39,123.01L1231.3,516.5z"/>
<path class="st2" d="M1245.11,514.8l-97.66,125.57l-7.15,9.18c-0.82,0.49-1.7,0.91-2.61,1.25h-11.16c-6.09-2.26-10.42-8.12-10.42-15
	c0-1.98,0.36-3.88,1.02-5.63l6.47-7.92l88.51-108.45l-86.5-102.86l-7.71-9.17c-0.51-1.56-0.79-3.23-0.79-4.97
	c0-6.88,4.33-12.74,10.42-15l5.41-0.87c0.95-0.15,1.93-0.09,2.81,0.3c0.01,0,0.01,0.01,0.02,0.01c0.27,0.12,0.87,0.34,1.59,0.59
	c3.21,1.13,6.03,3.14,8.12,5.82l2.46,3.14l96.39,123.01L1245.11,514.8z"/>
<path class="st1" d="M664.32,527.69l96.72-124.36l7.08-9.09c0.81-0.49,1.68-0.9,2.58-1.24h11.05c6.03,2.24,10.32,8.04,10.32,14.86
	c0,1.96-0.36,3.84-1.01,5.58l-6.41,7.84l-87.65,107.4l85.66,101.87l7.64,9.08c0.51,1.54,0.78,3.2,0.78,4.92
	c0,6.81-4.29,12.62-10.32,14.85l-5.36,0.86c-0.94,0.15-1.92,0.09-2.78-0.3c-0.01,0-0.01-0.01-0.02-0.01
	c-0.27-0.12-0.86-0.33-1.58-0.59c-3.18-1.11-5.97-3.11-8.05-5.76l-2.43-3.11L665.1,528.68L664.32,527.69z"/>
<path class="st3" d="M677.61,523.69l96.72-124.36l7.08-9.09c0.81-0.49,1.68-0.9,2.58-1.24h11.05c6.03,2.24,10.32,8.04,10.32,14.86
	c0,1.96-0.36,3.84-1.01,5.58l-6.41,7.84l-87.65,107.4l85.66,101.87l7.64,9.08c0.51,1.54,0.78,3.2,0.78,4.92
	c0,6.81-4.29,12.62-10.32,14.85l-5.36,0.86c-0.94,0.15-1.92,0.09-2.78-0.3c-0.01,0-0.01-0.01-0.02-0.01
	c-0.27-0.12-0.86-0.33-1.58-0.59c-3.18-1.11-5.97-3.11-8.05-5.76l-2.43-3.11l-95.46-121.82L677.61,523.69z"/>
<path class="st4" d="M940.4,608.92v2.76c0,3.38-2.74,6.12-6.12,6.12h-14.62c-3.38,0-6.12-2.74-6.12-6.12v-2.76
	c0-0.21,0.01-0.42,0.03-0.63c7.91-0.12,15.52-1.93,22.64-5.18C938.65,603.92,940.4,606.22,940.4,608.92z"/>
<path class="st4" d="M963.19,628.8h14.62c3.38,0,6.12,2.74,6.12,6.12v2.76c0,3.38-2.74,6.12-6.12,6.12h-14.62
	c-3.38,0-6.12-2.74-6.12-6.12v-2.76C957.07,631.54,959.81,628.8,963.19,628.8z"/>
<path class="st4" d="M992.56,530.92v2.76c0,3.38-2.74,6.12-6.12,6.12h-3.85c1.17-4.85,2.08-9.86,2.69-15h1.16
	C989.82,524.8,992.56,527.54,992.56,530.92z"/>
<path class="st4" d="M999.28,582.92v2.76c0,3.38-2.74,6.12-6.12,6.12h-30.93c-2.38,0-4.45-1.36-5.45-3.35
	c3.45-3.5,6.67-7.4,9.6-11.65h26.78C996.54,576.8,999.28,579.54,999.28,582.92z"/>
<path class="st4" d="M1008.87,478.92v2.76c0,3.38-2.74,6.12-6.12,6.12h-18.16c-0.82-5.16-1.94-10.17-3.32-15h21.48
	C1006.13,472.8,1008.87,475.54,1008.87,478.92z"/>
<path class="st4" d="M1017.5,504.92v2.76c0,3.38-2.74,6.12-6.12,6.12h-25.25c0.07-1.66,0.1-3.32,0.1-5c0-0.33,0-0.67-0.01-1
	c-0.02-3.03-0.14-6.04-0.36-9h25.52C1014.76,498.8,1017.5,501.54,1017.5,504.92z"/>
<path class="st4" d="M1033.81,608.92v2.76c0,3.38-2.74,6.12-6.12,6.12h-56.83c-3.38,0-6.12-2.74-6.12-6.12v-2.76
	c0-3.38,2.74-6.12,6.12-6.12h56.83C1031.07,602.8,1033.81,605.54,1033.81,608.92z"/>
<path class="st4" d="M1035.73,582.92v2.76c0,3.38-2.74,6.12-6.12,6.12h-14.62c-3.38,0-6.12-2.74-6.12-6.12v-2.76
	c0-3.38,2.74-6.12,6.12-6.12h14.62C1032.99,576.8,1035.73,579.54,1035.73,582.92z"/>
<path class="st4" d="M1053.95,504.92v2.76c0,3.38-2.74,6.12-6.12,6.12h-14.62c-3.38,0-6.12-2.74-6.12-6.12v-2.76
	c0-3.38,2.74-6.12,6.12-6.12h14.62C1051.21,498.8,1053.95,501.54,1053.95,504.92z"/>
<path class="st4" d="M1065.1,539.8h-56.83c-3.38,0-6.12-2.74-6.12-6.12v-2.76c0-3.38,2.74-6.12,6.12-6.12h56.83
	c3.38,0,6.12,2.74,6.12,6.12v2.76C1071.22,537.06,1068.48,539.8,1065.1,539.8z"/>
<path class="st4" d="M1010.79,455.68v-2.76c0-3.38,2.74-6.12,6.12-6.12h56.82c3.38,0,6.12,2.74,6.12,6.12v2.76
	c0,3.38-2.74,6.12-6.12,6.12h-56.82C1013.53,461.8,1010.79,459.06,1010.79,455.68z"/>
<path class="st4" d="M1024.58,472.8h56.83c3.38,0,6.12,2.74,6.12,6.12v2.76c0,3.38-2.74,6.12-6.12,6.12h-56.83
	c-3.38,0-6.12-2.74-6.12-6.12v-2.76C1018.46,475.54,1021.2,472.8,1024.58,472.8z"/>
<g class="st5">
	<path class="st6" d="M941.05,638.58h-59.76c-3.38,0-6.12-2.74-6.12-6.12v-2.76c0-3.38,2.74-6.12,6.12-6.12h59.76
		c3.38,0,6.12,2.74,6.12,6.12v2.76C947.17,635.84,944.43,638.58,941.05,638.58z"/>
	<path class="st6" d="M988.52,545.58h30.92c3.38,0,6.12,2.74,6.12,6.12v2.76c0,3.38-2.74,6.12-6.12,6.12h-30.92
		c-2.53,0-4.71-1.54-5.64-3.74c1.68-3.57,3.19-7.3,4.52-11.16C987.76,545.62,988.14,545.58,988.52,545.58z"/>
	<path class="st6" d="M1069.69,395.7v2.76c0,2.45-1.43,4.56-3.51,5.53c-0.79,0.38-1.68,0.59-2.61,0.59h-51.87l0.09-0.11l12.56-14.89
		h39.22C1066.95,389.58,1069.69,392.32,1069.69,395.7z"/>
	<path class="st6" d="M1035.09,421.71v2.77c0,3.39-2.75,6.13-6.13,6.13H989.6l12.69-15.03h26.67
		C1032.34,415.58,1035.09,418.33,1035.09,421.71z"/>
	<path class="st6" d="M1090.85,421.71v2.77c0,1.46-0.51,2.81-1.36,3.86c-1.12,1.38-2.85,2.27-4.77,2.27h-31
		c-3.39,0-6.13-2.75-6.13-6.13v-2.77c0-3.39,2.75-6.13,6.13-6.13h31C1088.1,415.58,1090.85,418.33,1090.85,421.71z"/>
	<path class="st6" d="M1009.14,447.77v2.77c0,3.39-2.75,6.13-6.13,6.13h-14.64c-1.23,0-2.39-0.36-3.35-0.99
		c-1.68-1.1-2.79-2.99-2.79-5.14v-2.77c0-3.39,2.75-6.13,6.13-6.13H1003C1006.39,441.64,1009.14,444.38,1009.14,447.77z"/>
	<path class="st6" d="M1087.96,447.77v2.77c0,3.39-2.75,6.13-6.13,6.13h-56.94c-3.39,0-6.13-2.75-6.13-6.13v-2.77
		c0-3.39,2.75-6.13,6.13-6.13h56.94C1085.22,441.64,1087.96,444.38,1087.96,447.77z"/>
	<path class="st6" d="M1132.19,473.82v2.77c0,3.39-2.75,6.13-6.13,6.13h-14.65c-3.39,0-6.13-2.75-6.13-6.13v-2.77
		c0-2.8,1.86-5.15,4.42-5.89c0.54-0.16,1.12-0.24,1.71-0.24h14.65C1129.44,467.69,1132.19,470.44,1132.19,473.82z"/>
	<path class="st6" d="M1095.66,473.82v2.77c0,3.39-2.75,6.13-6.13,6.13h-56.95c-3.39,0-6.13-2.75-6.13-6.13v-2.77
		c0-3.39,2.75-6.13,6.13-6.13h56.95C1092.91,467.69,1095.66,470.44,1095.66,473.82z"/>
	<path class="st6" d="M1016.83,473.82v2.77c0,3.39-2.75,6.13-6.13,6.13h-18.2c-0.82-5.17-1.94-10.19-3.33-15.03h21.53
		C1014.09,467.69,1016.83,470.44,1016.83,473.82z"/>
	<path class="st6" d="M1140.83,447.77v2.77c0,3.39-2.75,6.13-6.13,6.13h-31c-3.39,0-6.13-2.75-6.13-6.13v-2.77
		c0-1.65,0.66-3.15,1.71-4.25c1.11-1.16,2.69-1.88,4.42-1.88h31C1138.09,441.64,1140.83,444.38,1140.83,447.77z"/>
	<path class="st6" d="M1007.34,577.7v2.76c0,3.38-2.74,6.12-6.12,6.12h-30.93c-2.38,0-4.45-1.36-5.45-3.35
		c3.45-3.5,6.67-7.4,9.6-11.65h26.78C1004.6,571.58,1007.34,574.32,1007.34,577.7z"/>
	<path class="st6" d="M1043.79,577.7v2.76c0,3.38-2.74,6.12-6.12,6.12h-14.62c-3.38,0-6.12-2.74-6.12-6.12v-2.76
		c0-3.38,2.74-6.12,6.12-6.12h14.62C1041.05,571.58,1043.79,574.32,1043.79,577.7z"/>
	<path class="st6" d="M1121.49,577.7v2.76c0,3.38-2.74,6.12-6.12,6.12h-56.83c-3.38,0-6.12-2.74-6.12-6.12v-2.76
		c0-3.38,2.74-6.12,6.12-6.12h56.83C1118.75,571.58,1121.49,574.32,1121.49,577.7z"/>
	<path class="st6" d="M1025.56,499.7v2.76c0,3.38-2.74,6.12-6.12,6.12h-25.25c0.07-1.66,0.1-3.32,0.1-5c0-0.33,0-0.67-0.01-1
		c-0.02-3.03-0.14-6.04-0.36-9h25.52C1022.82,493.58,1025.56,496.32,1025.56,499.7z"/>
	<path class="st6" d="M1062.01,499.7v2.76c0,3.38-2.74,6.12-6.12,6.12h-14.62c-3.38,0-6.12-2.74-6.12-6.12v-2.76
		c0-3.38,2.74-6.12,6.12-6.12h14.62C1059.27,493.58,1062.01,496.32,1062.01,499.7z"/>
	<path class="st6" d="M1139.87,499.88v2.77c0,3.39-2.75,6.13-6.13,6.13h-56.94c-3.39,0-6.13-2.75-6.13-6.13v-2.77
		c0-3.39,2.75-6.13,6.13-6.13h56.94C1137.13,493.74,1139.87,496.49,1139.87,499.88z"/>
	<path class="st6" d="M1000.62,525.7v2.76c0,3.38-2.74,6.12-6.12,6.12h-3.85c1.17-4.85,2.08-9.86,2.69-15h1.16
		C997.88,519.58,1000.62,522.32,1000.62,525.7z"/>
	<path class="st6" d="M1079.28,525.7v2.76c0,3.38-2.74,6.12-6.12,6.12h-56.83c-3.38,0-6.12-2.74-6.12-6.12v-2.76
		c0-3.38,2.74-6.12,6.12-6.12h56.83C1076.54,519.58,1079.28,522.32,1079.28,525.7z"/>
	<path class="st6" d="M1132.04,525.7v2.76c0,3.38-2.74,6.12-6.12,6.12h-30.93c-3.38,0-6.12-2.74-6.12-6.12v-2.76
		c0-3.38,2.74-6.12,6.12-6.12h30.93C1129.3,519.58,1132.04,522.32,1132.04,525.7z"/>
	<path class="st6" d="M1119.93,545.58h14.62c3.38,0,6.12,2.74,6.12,6.12v2.76c0,3.38-2.74,6.12-6.12,6.12h-14.62
		c-3.38,0-6.12-2.74-6.12-6.12v-2.76C1113.81,548.32,1116.55,545.58,1119.93,545.58z"/>
	<path class="st6" d="M1104.22,551.7v2.76c0,3.38-2.74,6.12-6.12,6.12h-56.83c-3.38,0-6.12-2.74-6.12-6.12v-2.76
		c0-3.38,2.74-6.12,6.12-6.12h56.83C1101.48,545.58,1104.22,548.32,1104.22,551.7z"/>
	<path class="st6" d="M1041.87,603.7v2.76c0,3.38-2.74,6.12-6.12,6.12h-56.83c-3.38,0-6.12-2.74-6.12-6.12v-2.76
		c0-3.38,2.74-6.12,6.12-6.12h56.83C1039.13,597.58,1041.87,600.32,1041.87,603.7z"/>
	<path class="st6" d="M1094.63,603.7v2.76c0,3.38-2.74,6.12-6.12,6.12h-30.93c-3.38,0-6.12-2.74-6.12-6.12v-2.76
		c0-3.38,2.74-6.12,6.12-6.12h30.93C1091.89,597.58,1094.63,600.32,1094.63,603.7z"/>
	<path class="st6" d="M991.99,629.7v2.76c0,3.38-2.74,6.12-6.12,6.12h-14.62c-3.38,0-6.12-2.74-6.12-6.12v-2.76
		c0-3.38,2.74-6.12,6.12-6.12h14.62C989.25,623.58,991.99,626.32,991.99,629.7z"/>
	<path class="st6" d="M1070.65,629.7v2.76c0,3.38-2.74,6.12-6.12,6.12h-56.83c-1.61,0-3.07-0.61-4.16-1.64
		c-1.2-1.11-1.96-2.71-1.96-4.48v-2.76c0-3.38,2.74-6.12,6.12-6.12h56.83C1067.91,623.58,1070.65,626.32,1070.65,629.7z"/>
	<path class="st6" d="M948.46,603.7v2.76c0,3.38-2.74,6.12-6.12,6.12h-14.62c-3.38,0-6.12-2.74-6.12-6.12v-2.76
		c0-0.21,0.01-0.42,0.03-0.63c7.91-0.12,15.52-1.93,22.64-5.18C946.71,598.7,948.46,601,948.46,603.7z"/>
</g>
<path class="st4" d="M1096.16,556.92v2.76c0,3.38-2.74,6.12-6.12,6.12h-56.83c-3.38,0-6.12-2.74-6.12-6.12v-2.76
	c0-3.38,2.74-6.12,6.12-6.12h56.83C1093.42,550.8,1096.16,553.54,1096.16,556.92z"/>
<g>
	<path class="st7" d="M939.11,634.92v2.76c0,3.38-2.74,6.12-6.12,6.12h-59.76c-1.39,0-2.68-0.46-3.71-1.26l1.18-2.04l6.78-11.7
		h55.51C936.37,628.8,939.11,631.54,939.11,634.92z"/>
	<path class="st8" d="M980.46,550.8h30.92c3.38,0,6.12,2.74,6.12,6.12v2.76c0,3.38-2.74,6.12-6.12,6.12h-30.92
		c-2.53,0-4.71-1.54-5.64-3.74c1.68-3.57,3.19-7.3,4.52-11.16C979.7,550.84,980.08,550.8,980.46,550.8z"/>
	<radialGradient id="SVGID_1_" cx="1032.3582" cy="402.3033" r="21.7991" gradientUnits="userSpaceOnUse">
		<stop  offset="3.968250e-03" style="stop-color:#2459FD"/>
		<stop  offset="0.0606" style="stop-color:#204EE4"/>
		<stop  offset="0.1723" style="stop-color:#193AB8"/>
		<stop  offset="0.2892" style="stop-color:#132992"/>
		<stop  offset="0.4101" style="stop-color:#0E1B74"/>
		<stop  offset="0.5363" style="stop-color:#0B115C"/>
		<stop  offset="0.6701" style="stop-color:#08094B"/>
		<stop  offset="0.8166" style="stop-color:#060441"/>
		<stop  offset="1" style="stop-color:#06033E"/>
	</radialGradient>
	<path class="st9" d="M1061.63,400.92v2.76c0,2.45-1.43,4.56-3.51,5.53c-0.79,0.38-1.68,0.59-2.61,0.59h-51.87l0.09-0.11
		l12.56-14.89h39.22C1058.89,394.8,1061.63,397.54,1061.63,400.92z"/>
	<path class="st8" d="M1027.03,426.94v2.76c0,3.39-2.74,6.14-6.13,6.14h-31.51l8.72-15.04h22.79
		C1024.29,420.8,1027.03,423.55,1027.03,426.94z"/>
	<path class="st10" d="M1082.79,426.94v2.77c0,1.46-0.51,2.81-1.36,3.86c-1.12,1.38-2.85,2.27-4.77,2.27h-31
		c-3.39,0-6.13-2.75-6.13-6.13v-2.77c0-3.39,2.75-6.13,6.13-6.13h31C1080.05,420.8,1082.79,423.55,1082.79,426.94z"/>
	<path class="st11" d="M1001.08,452.99v2.77c0,3.38-2.75,6.13-6.13,6.13h-14.64c-1.24,0-2.39-0.36-3.35-0.99
		c-0.52-0.34-0.99-0.76-1.38-1.24l7.42-12.8h11.95C998.33,446.86,1001.08,449.6,1001.08,452.99z"/>
	<radialGradient id="SVGID_2_" cx="1045.3033" cy="454.3741" r="25.4605" gradientUnits="userSpaceOnUse">
		<stop  offset="3.968250e-03" style="stop-color:#2459FD"/>
		<stop  offset="0.0606" style="stop-color:#204EE4"/>
		<stop  offset="0.1723" style="stop-color:#193AB8"/>
		<stop  offset="0.2892" style="stop-color:#132992"/>
		<stop  offset="0.4101" style="stop-color:#0E1B74"/>
		<stop  offset="0.5363" style="stop-color:#0B115C"/>
		<stop  offset="0.6701" style="stop-color:#08094B"/>
		<stop  offset="0.8166" style="stop-color:#060441"/>
		<stop  offset="1" style="stop-color:#06033E"/>
	</radialGradient>
	<path class="st12" d="M1079.91,452.99v2.77c0,3.39-2.75,6.13-6.13,6.13h-56.94c-3.39,0-6.13-2.75-6.13-6.13v-2.77
		c0-3.39,2.75-6.13,6.13-6.13h56.94C1077.16,446.86,1079.91,449.6,1079.91,452.99z"/>
	<path class="st11" d="M1124.13,479.05v2.77c0,3.39-2.75,6.13-6.13,6.13h-14.65c-3.39,0-6.13-2.75-6.13-6.13v-2.77
		c0-2.8,1.86-5.15,4.42-5.89c0.54-0.16,1.12-0.24,1.71-0.24H1118C1121.38,472.91,1124.13,475.66,1124.13,479.05z"/>
	<path class="st7" d="M1087.6,479.05v2.77c0,3.39-2.75,6.13-6.13,6.13h-56.95c-3.39,0-6.13-2.75-6.13-6.13v-2.77
		c0-3.39,2.75-6.13,6.13-6.13h56.95C1084.86,472.91,1087.6,475.66,1087.6,479.05z"/>
	<path class="st10" d="M1008.78,479.05v2.77c0,3.39-2.75,6.13-6.13,6.13h-18.2c-0.82-5.17-1.94-10.19-3.33-15.03h21.53
		C1006.03,472.91,1008.78,475.66,1008.78,479.05z"/>
	<path class="st10" d="M1132.78,452.99v2.77c0,3.39-2.75,6.13-6.13,6.13h-31c-3.39,0-6.13-2.75-6.13-6.13v-2.77
		c0-1.65,0.66-3.15,1.71-4.25c1.11-1.16,2.69-1.88,4.42-1.88h31C1130.03,446.86,1132.78,449.6,1132.78,452.99z"/>
	<path class="st7" d="M999.28,582.92v2.76c0,3.38-2.74,6.12-6.12,6.12h-30.93c-2.38,0-4.45-1.36-5.45-3.35
		c3.45-3.5,6.67-7.4,9.6-11.65h26.78C996.54,576.8,999.28,579.54,999.28,582.92z"/>
	<path class="st11" d="M1035.73,582.92v2.76c0,3.38-2.74,6.12-6.12,6.12h-14.62c-3.38,0-6.12-2.74-6.12-6.12v-2.76
		c0-3.38,2.74-6.12,6.12-6.12h14.62C1032.99,576.8,1035.73,579.54,1035.73,582.92z"/>
	<path class="st7" d="M1113.43,582.92v2.76c0,3.38-2.74,6.12-6.12,6.12h-56.83c-3.38,0-6.12-2.74-6.12-6.12v-2.76
		c0-3.38,2.74-6.12,6.12-6.12h56.83C1110.69,576.8,1113.43,579.54,1113.43,582.92z"/>
	<path class="st8" d="M1017.5,504.92v2.76c0,3.38-2.74,6.12-6.12,6.12h-25.25c0.07-1.66,0.1-3.32,0.1-5c0-0.33,0-0.67-0.01-1
		c-0.02-3.03-0.14-6.04-0.36-9h25.52C1014.76,498.8,1017.5,501.54,1017.5,504.92z"/>
	<path class="st11" d="M1053.95,504.92v2.76c0,3.38-2.74,6.12-6.12,6.12h-14.62c-3.38,0-6.12-2.74-6.12-6.12v-2.76
		c0-3.38,2.74-6.12,6.12-6.12h14.62C1051.21,498.8,1053.95,501.54,1053.95,504.92z"/>
	<radialGradient id="SVGID_3_" cx="1097.213" cy="506.4841" r="25.4605" gradientUnits="userSpaceOnUse">
		<stop  offset="3.968250e-03" style="stop-color:#2459FD"/>
		<stop  offset="0.0606" style="stop-color:#204EE4"/>
		<stop  offset="0.1723" style="stop-color:#193AB8"/>
		<stop  offset="0.2892" style="stop-color:#132992"/>
		<stop  offset="0.4101" style="stop-color:#0E1B74"/>
		<stop  offset="0.5363" style="stop-color:#0B115C"/>
		<stop  offset="0.6701" style="stop-color:#08094B"/>
		<stop  offset="0.8166" style="stop-color:#060441"/>
		<stop  offset="1" style="stop-color:#06033E"/>
	</radialGradient>
	<path class="st13" d="M1131.82,505.1v2.77c0,3.39-2.75,6.13-6.13,6.13h-56.94c-3.39,0-6.13-2.75-6.13-6.13v-2.77
		c0-3.39,2.75-6.13,6.13-6.13h56.94C1129.07,498.97,1131.82,501.71,1131.82,505.1z"/>
	<path class="st11" d="M992.56,530.92v2.76c0,3.38-2.74,6.12-6.12,6.12h-3.85c1.17-4.85,2.08-9.86,2.69-15h1.16
		C989.82,524.8,992.56,527.54,992.56,530.92z"/>
	<path class="st7" d="M1071.22,530.92v2.76c0,3.38-2.74,6.12-6.12,6.12h-56.83c-3.38,0-6.12-2.74-6.12-6.12v-2.76
		c0-3.38,2.74-6.12,6.12-6.12h56.83C1068.48,524.8,1071.22,527.54,1071.22,530.92z"/>
	<path class="st8" d="M1123.98,530.92v2.76c0,3.38-2.74,6.12-6.12,6.12h-30.93c-3.38,0-6.12-2.74-6.12-6.12v-2.76
		c0-3.38,2.74-6.12,6.12-6.12h30.93C1121.24,524.8,1123.98,527.54,1123.98,530.92z"/>
	<path class="st10" d="M1111.87,550.8h14.62c3.38,0,6.12,2.74,6.12,6.12v2.76c0,3.38-2.74,6.12-6.12,6.12h-14.62
		c-3.38,0-6.12-2.74-6.12-6.12v-2.76C1105.75,553.54,1108.49,550.8,1111.87,550.8z"/>
	<radialGradient id="SVGID_4_" cx="1061.6256" cy="558.3033" r="25.4111" gradientUnits="userSpaceOnUse">
		<stop  offset="3.968250e-03" style="stop-color:#2459FD"/>
		<stop  offset="0.0606" style="stop-color:#204EE4"/>
		<stop  offset="0.1723" style="stop-color:#193AB8"/>
		<stop  offset="0.2892" style="stop-color:#132992"/>
		<stop  offset="0.4101" style="stop-color:#0E1B74"/>
		<stop  offset="0.5363" style="stop-color:#0B115C"/>
		<stop  offset="0.6701" style="stop-color:#08094B"/>
		<stop  offset="0.8166" style="stop-color:#060441"/>
		<stop  offset="1" style="stop-color:#06033E"/>
	</radialGradient>
	<path class="st14" d="M1096.16,556.92v2.76c0,3.38-2.74,6.12-6.12,6.12h-56.83c-3.38,0-6.12-2.74-6.12-6.12v-2.76
		c0-3.38,2.74-6.12,6.12-6.12h56.83C1093.42,550.8,1096.16,553.54,1096.16,556.92z"/>
	<radialGradient id="SVGID_5_" cx="999.2756" cy="610.3033" r="25.4111" gradientUnits="userSpaceOnUse">
		<stop  offset="3.968250e-03" style="stop-color:#2459FD"/>
		<stop  offset="0.0606" style="stop-color:#204EE4"/>
		<stop  offset="0.1723" style="stop-color:#193AB8"/>
		<stop  offset="0.2892" style="stop-color:#132992"/>
		<stop  offset="0.4101" style="stop-color:#0E1B74"/>
		<stop  offset="0.5363" style="stop-color:#0B115C"/>
		<stop  offset="0.6701" style="stop-color:#08094B"/>
		<stop  offset="0.8166" style="stop-color:#060441"/>
		<stop  offset="1" style="stop-color:#06033E"/>
	</radialGradient>
	<path class="st15" d="M1033.81,608.92v2.76c0,3.38-2.74,6.12-6.12,6.12h-56.83c-3.38,0-6.12-2.74-6.12-6.12v-2.76
		c0-3.38,2.74-6.12,6.12-6.12h56.83C1031.07,602.8,1033.81,605.54,1033.81,608.92z"/>
	<path class="st10" d="M1086.57,608.92v2.76c0,3.38-2.74,6.12-6.12,6.12h-30.93c-3.38,0-6.12-2.74-6.12-6.12v-2.76
		c0-3.38,2.74-6.12,6.12-6.12h30.93C1083.83,602.8,1086.57,605.54,1086.57,608.92z"/>
	<path class="st11" d="M983.93,634.92v2.76c0,3.38-2.74,6.12-6.12,6.12h-14.62c-3.38,0-6.12-2.74-6.12-6.12v-2.76
		c0-3.38,2.74-6.12,6.12-6.12h14.62C981.19,628.8,983.93,631.54,983.93,634.92z"/>
	<path class="st8" d="M1062.59,634.92v2.76c0,3.38-2.74,6.12-6.12,6.12h-56.83c-1.61,0-3.07-0.61-4.16-1.64
		c-1.2-1.11-1.96-2.71-1.96-4.48v-2.76c0-3.38,2.74-6.12,6.12-6.12h56.83C1059.85,628.8,1062.59,631.54,1062.59,634.92z"/>
	<path class="st10" d="M940.4,608.92v2.76c0,3.38-2.74,6.12-6.12,6.12h-14.62c-3.38,0-6.12-2.74-6.12-6.12v-2.76
		c0-0.21,0.01-0.42,0.03-0.63c7.91-0.12,15.52-1.93,22.64-5.18C938.65,603.92,940.4,606.22,940.4,608.92z"/>
</g>
<path class="st1" d="M1039.12,319.35c0.24,0.95,0.35,1.89,0.38,2.82l-7.09,12.2l-14.64,25.21l-6.77,11.66l-12.48,21.49l-21.97,37.83
	l-33.76,58.15l-17.69,30.46l-22.87,39.38l-0.75,1.29l-6.13,10.56l-5.59,9.63l-12.29,21.16c-0.01,0.02-0.02,0.04-0.02,0.06
	l-0.23,0.01l-0.62,1.44l-11.64,20.05l-31,53.4l-5.85,10.08l-0.61,1.05c-2.17,1.32-4.78,2.05-7.62,1.94
	c-6.37-0.25-11.69-5.18-12.6-11.49c-0.09-0.65-0.14-1.29-0.13-1.92l6.73-11.61l7.91-13.63l13.05-22.48l12.5-21.52l23.7-40.18l-0.7,1
	l-0.06-0.33l8.54-14.71l1.77-3.03l6.09-10.49l25.99-44.76l6.12-10.53l40.02-68.92l26.94-46.39l1.91-3.3l4.55-7.84l20.5-35.3
	l6.06-10.45c1.82-1.18,3.96-1.95,6.32-2.13C1031.55,308.69,1037.55,313.06,1039.12,319.35z"/>
<path class="st16" d="M955.36,642.03c-2.8,0.46-5.64,0.46-8.44,0H955.36z"/>
<path class="st2" d="M1043.15,325.33c0.24,0.95,0.35,1.89,0.38,2.82l-7.09,12.2l-14.64,25.21l-6.77,11.66l-12.48,21.49l-21.97,37.83
	l-33.76,58.15l-17.69,30.46l-22.87,39.38l-0.75,1.29l-6.13,10.56l-5.59,9.63l-12.29,21.16c-0.01,0.02-0.02,0.04-0.02,0.06
	l-0.23,0.01l-0.62,1.44L869,628.72l-31,53.4l-5.85,10.08l-0.61,1.05c-2.17,1.32-4.78,2.05-7.62,1.94
	c-6.37-0.25-11.69-5.18-12.6-11.49c-0.09-0.65-0.14-1.29-0.13-1.92l6.73-11.61l7.91-13.63l13.05-22.48l12.5-21.52l23.7-40.18l-0.7,1
	l-0.06-0.33l8.54-14.71l1.77-3.03l6.09-10.49l25.99-44.76l6.12-10.53l40.02-68.92l26.94-46.39l1.91-3.3l4.55-7.84l20.5-35.3
	l6.06-10.45c1.82-1.18,3.96-1.95,6.32-2.13C1035.59,314.66,1041.58,319.04,1043.15,325.33z"/>
<path class="st1" d="M955.67,395.45l-4.45,7.65l-1.91,3.3l-6.96,11.98l-19.98,34.41l-7.89,13.59l-0.58,1l-27.87,48l-3.67,6.33
	l-6.12,10.53l-18.08,31.14l-0.58,1L850.25,577l-6.08,10.49l-1.77,3.03l-8.54,14.71l0.06,0.33l0.7-1l-4.61,7.82l-0.59,1l-14.03,23.79
	l-1.33-0.79v-36.01l1.05-1.81l19.85-34.18l0.58-1l1.54-2.65l12.49-21.49l6.76-11.66l7.08-12.2l7.56-13.01l7.09-12.2
	c-0.03-0.93-0.15-1.87-0.38-2.82c-1.57-6.29-7.57-10.66-14.03-10.16c-2.35,0.18-4.49,0.95-6.32,2.13l-6.06,10.45l-14.87,25.61
	l-5.62,9.69l-4.56,7.83l-1.91,3.3l-10.25,17.65v-32.7l3.35-5.77l9.67-16.65l12.49-21.49l5.72-9.86l0.58-1l0.46-0.8l14.64-25.21
	l7.09-12.2c-0.03-0.93-0.15-1.87-0.38-2.82c-0.7-2.78-2.26-5.19-4.35-6.97c-2.62-2.24-6.08-3.47-9.68-3.19
	c-2.35,0.18-4.49,0.95-6.32,2.13l-0.61,1.06l-5.45,9.39l-20.49,35.3l-1.93,3.31l-0.58,1l-2.05,3.52l-1.91,3.3l-0.25,0.43v-78.18
	l7.6-0.13l1.49-0.03l45.53-0.77l35.23-0.6l49.14-0.84C953.93,394.53,954.8,394.98,955.67,395.45z"/>
<path class="st10" d="M960.11,396.57l-4.45,7.65l-1.91,3.3l-6.96,11.98l-19.98,34.41l-7.89,13.59l-0.58,1l-27.87,48l-3.67,6.33
	l-6.12,10.53L862.6,564.5l-0.58,1l-7.33,12.62l-6.08,10.49l-1.77,3.03l-8.54,14.71l0.06,0.33l0.7-1l-4.61,7.82l-0.59,1l-14.03,23.79
	l-1.33-0.79v-36.01l1.05-1.81l19.85-34.18l0.58-1l1.54-2.65l12.49-21.49l6.76-11.66l7.08-12.2l7.56-13.01l7.09-12.2
	c-0.03-0.93-0.15-1.87-0.38-2.82c-1.57-6.29-7.57-10.66-14.03-10.16c-2.35,0.18-4.49,0.95-6.32,2.13l-6.06,10.45l-14.87,25.61
	l-5.62,9.69l-4.56,7.83l-1.91,3.3l-10.25,17.65v-32.7l3.35-5.77l9.67-16.65l12.49-21.49l5.72-9.86l0.58-1l0.46-0.8l14.64-25.21
	l7.09-12.2c-0.03-0.93-0.15-1.87-0.38-2.82c-0.7-2.78-2.26-5.19-4.35-6.97c-2.62-2.24-6.08-3.47-9.68-3.19
	c-2.35,0.18-4.49,0.95-6.32,2.13l-0.61,1.06l-5.45,9.39l-20.49,35.3l-1.93,3.31l-0.58,1l-2.05,3.52l-1.91,3.3l-0.25,0.43v-78.18
	l7.6-0.13l1.49-0.03l45.53-0.77l35.23-0.6l49.14-0.84C958.37,395.65,959.24,396.1,960.11,396.57z"/>
</svg>
